<svg xmlns="http://www.w3.org/2000/svg" width="22" height="22" viewBox="0 0 22 22">
  <path id="Bill_Icon" data-name="Bill Icon" d="M16.215,12.283a.676.676,0,0,1-.68.672H6.465a.672.672,0,1,1,0-1.343h9.069A.676.676,0,0,1,16.215,12.283Zm0-5.036a.676.676,0,0,1-.68.672H6.465a.672.672,0,1,1,0-1.343h9.069A.676.676,0,0,1,16.215,7.247ZM20.64,17.781,17.876,20.4,14.9,17.583a.686.686,0,0,0-.942,0L10.992,20.4,8.024,17.584a.685.685,0,0,0-.943,0L4.114,20.4,1.36,17.782V4.029A2.708,2.708,0,0,1,4.081,1.343H17.919A2.707,2.707,0,0,1,20.64,4.029ZM17.919,0H4.081A4.06,4.06,0,0,0,0,4.029V18c0,.013.007.026.008.039a.659.659,0,0,0,.2.515l3.434,3.26a.687.687,0,0,0,.943,0L7.553,19l2.968,2.814a.684.684,0,0,0,.942,0L14.431,19l2.975,2.815a.686.686,0,0,0,.941,0l3.444-3.26a.659.659,0,0,0,.2-.516c0-.014.008-.026.008-.039V4.029A4.06,4.06,0,0,0,17.919,0Z" fill="#ff0036" fill-rule="evenodd"/>
</svg>
