<svg xmlns="http://www.w3.org/2000/svg" width="22" height="23" viewBox="0 0 22 23">
  <path id="Call" d="M20.688,21a.514.514,0,0,1-.42.517,16.771,16.771,0,0,1-6.552-.324A16.437,16.437,0,0,1,1.6,8.36a15.39,15.39,0,0,1-.284-3.018,16.182,16.182,0,0,1,.413-3.663A.518.518,0,0,1,2.239,1.3H5.976A1.7,1.7,0,0,1,7.684,3V4.912l-2.217.942A1.808,1.808,0,0,0,4.376,7.82a13.641,13.641,0,0,0,9.6,10.535,1.866,1.866,0,0,0,2.23-1.03l.842-1.949H18.98a1.7,1.7,0,0,1,1.708,1.695ZM18.98,14.075H16.616a.658.658,0,0,0-.6.394L15,16.814a.546.546,0,0,1-.658.292A12.329,12.329,0,0,1,5.666,7.585a.5.5,0,0,1,.318-.534L8.6,5.941a.652.652,0,0,0,.4-.6V3a3.012,3.012,0,0,0-3.02-3H2.239A1.838,1.838,0,0,0,.447,1.388,17.48,17.48,0,0,0,0,5.342,16.659,16.659,0,0,0,.307,8.605,17.747,17.747,0,0,0,13.393,22.452a17.976,17.976,0,0,0,7.068.349A1.825,1.825,0,0,0,22,21V17.071A3.012,3.012,0,0,0,18.98,14.075Z" fill="#ff0036" fill-rule="evenodd"/>
</svg>
