<svg xmlns="http://www.w3.org/2000/svg" width="22" height="15" viewBox="0 0 22 15">
  <path id="Cash" d="M15.644,5.915a.628.628,0,0,1-.623.634H13.983a.634.634,0,0,1,0-1.268h1.038A.628.628,0,0,1,15.644,5.915Zm-10.118,0a.627.627,0,0,1-.623.634H3.865a.634.634,0,0,1,0-1.268H4.9A.627.627,0,0,1,5.525,5.915Zm5.993,0A2.076,2.076,0,1,1,9.443,3.8,2.094,2.094,0,0,1,11.518,5.915Zm9.237,7.394a.425.425,0,0,1-.416.422H4.773a.425.425,0,0,1-.415-.422V11.831H17.226a1.677,1.677,0,0,0,1.66-1.69v-5.7H20.34a.425.425,0,0,1,.416.423Zm-19.1-2.747a.419.419,0,0,1-.415-.423V1.69a.419.419,0,0,1,.415-.423H17.226a.42.42,0,0,1,.416.423v8.451a.42.42,0,0,1-.416.423ZM20.34,3.169H18.887V1.69A1.677,1.677,0,0,0,17.226,0H1.659A1.676,1.676,0,0,0,0,1.69v8.451a1.676,1.676,0,0,0,1.659,1.69H3.113V13.31A1.676,1.676,0,0,0,4.773,15H20.34A1.677,1.677,0,0,0,22,13.31V4.859A1.677,1.677,0,0,0,20.34,3.169Z" fill="#ff0036" fill-rule="evenodd"/>
</svg>
