<svg xmlns="http://www.w3.org/2000/svg" width="10.833" height="11.552" viewBox="0 0 10.833 11.552">
  <g id="layer1" transform="translate(-98.98 -150.777)">
    <path id="path7573-1" d="M104.615,150.779c-.178,0-.356.016-.532.037a5.773,5.773,0,1,0,5.65,8.625.47.47,0,1,0-.812-.467,4.828,4.828,0,1,1-2.93-7.092.47.47,0,0,0,.244-.908,5.727,5.727,0,0,0-1.621-.2Zm3.064,2.991a.382.382,0,0,0-.271.113l-2.665,2.672-1.061-1.064a.382.382,0,0,0-.543,0l-.648.65a.384.384,0,0,0,0,.544l1.332,1.335.648.65a.382.382,0,0,0,.543,0l.648-.65,2.936-2.943a.384.384,0,0,0,0-.544l-.648-.65A.381.381,0,0,0,107.679,153.77Z" fill="#4d4d4d" fill-rule="evenodd"/>
  </g>
</svg>
