<svg xmlns="http://www.w3.org/2000/svg" width="21.996" height="21.996" viewBox="0 0 21.996 21.996">
  <path id="Discover" d="M15.481,15.1a1.038,1.038,0,1,1-.38,1.418A1.038,1.038,0,0,1,15.481,15.1Zm2.246,3.891-7.711.463,4.256-6.446,7.711-.463Zm5.426-7.765-9.265.556a.622.622,0,0,0-.483.279L8.29,19.808a.624.624,0,0,0,.557.965l9.265-.556a.629.629,0,0,0,.483-.279l5.114-7.746a.624.624,0,0,0-.557-.965ZM20.877,24.448a9.755,9.755,0,1,1,3.57-13.325A9.765,9.765,0,0,1,20.877,24.448ZM10.5,6.474A11,11,0,1,0,25.526,10.5,11.012,11.012,0,0,0,10.5,6.474Z" transform="translate(-5.002 -5.002)" fill="#ff0036" fill-rule="evenodd"/>
</svg>
