<svg xmlns="http://www.w3.org/2000/svg" width="19" height="22" viewBox="0 0 19 22">
  <path id="Flash_Icon" data-name="Flash Icon" d="M8.775,20.8V13.437a1.126,1.126,0,0,0-1.132-1.116l-6.39.083L10.225,1.2V8.562a1.126,1.126,0,0,0,1.132,1.117l6.39-.083ZM18.879,9.11a1.2,1.2,0,0,0-1.091-.677h-6.3V1.2a1.181,1.181,0,0,0-.81-1.127A1.212,1.212,0,0,0,9.331.45L.266,11.627a1.171,1.171,0,0,0-.145,1.263,1.2,1.2,0,0,0,1.091.677h6.3V20.8a1.181,1.181,0,0,0,.81,1.127A1.245,1.245,0,0,0,8.731,22a1.2,1.2,0,0,0,.938-.45l9.064-11.176A1.173,1.173,0,0,0,18.879,9.11Z" fill="#ff0036" fill-rule="evenodd"/>
</svg>
