<svg xmlns="http://www.w3.org/2000/svg" width="25" height="18" viewBox="0 0 25 18">
  <path id="Game_Icon" data-name="Game Icon" d="M20.806,11.385A2.155,2.155,0,1,1,18.65,9.217,2.162,2.162,0,0,1,20.806,11.385Zm-12.214,0a.648.648,0,0,1-.647.651H6.813v1.139a.647.647,0,1,1-1.293,0V12.036H4.389a.651.651,0,0,1,0-1.3H5.52V9.6a.647.647,0,1,1,1.293,0v1.139H7.945A.648.648,0,0,1,8.591,11.385Zm15.015,1.064a5.271,5.271,0,0,1-9.087,2.507,1.868,1.868,0,0,0-1.389-.643H11.87a1.861,1.861,0,0,0-1.386.642,5.284,5.284,0,0,1-9.166-4.1A5.476,5.476,0,0,1,6.832,6.072h11.6A5.255,5.255,0,0,1,22.5,8.007,5.379,5.379,0,0,1,23.607,12.449ZM23.5,7.179a6.535,6.535,0,0,0-5.072-2.408H13.148V.651a.647.647,0,1,0-1.293,0v4.12H6.832a6.78,6.78,0,0,0-6.8,5.963,6.569,6.569,0,0,0,11.409,5.1.6.6,0,0,1,.429-.217h1.261a.607.607,0,0,1,.432.218A6.525,6.525,0,0,0,18.424,18a6.763,6.763,0,0,0,1.343-.135A6.589,6.589,0,0,0,24.876,12.7,6.678,6.678,0,0,0,23.5,7.179Z" fill="#ff0036" fill-rule="evenodd"/>
</svg>
