<svg xmlns="http://www.w3.org/2000/svg" width="19" height="22" viewBox="0 0 19 22">
  <path id="Gift_Icon" data-name="Gift Icon" d="M17.736,13.1h-7.6V7.585L12.379,9.8a.637.637,0,0,0,.893,0,.613.613,0,0,0,0-.879L11.034,6.712h4.174A2.513,2.513,0,0,1,17.736,9.2Zm0,5.144a2.513,2.513,0,0,1-2.528,2.491H10.132V14.348h7.6Zm-7.6-14.9a2.139,2.139,0,0,1,4.278,0A2.126,2.126,0,0,1,12.272,5.46H10.132ZM8.868,5.46H6.729A2.126,2.126,0,0,1,4.59,3.353a2.139,2.139,0,0,1,4.278,0Zm0,7.644h-7.6V9.2A2.513,2.513,0,0,1,3.792,6.712H7.967L5.728,8.919a.615.615,0,0,0,0,.879.638.638,0,0,0,.894,0L8.868,7.585Zm0,7.635H3.792a2.513,2.513,0,0,1-2.528-2.491v-3.9h7.6Zm6.34-15.271h-.3a3.306,3.306,0,0,0,.765-2.115A3.382,3.382,0,0,0,12.272,0,3.418,3.418,0,0,0,9.5,1.408,3.416,3.416,0,0,0,6.729,0a3.382,3.382,0,0,0-3.4,3.353,3.305,3.305,0,0,0,.765,2.115h-.3A3.768,3.768,0,0,0,0,9.2v9.045a3.769,3.769,0,0,0,3.792,3.736H9.359A.7.7,0,0,0,9.5,22a.687.687,0,0,0,.141-.016h5.566A3.769,3.769,0,0,0,19,18.248V9.2A3.768,3.768,0,0,0,15.208,5.468Z" fill="#ff0036" fill-rule="evenodd"/>
</svg>
