<svg xmlns="http://www.w3.org/2000/svg" xmlns:xlink="http://www.w3.org/1999/xlink" width="22" height="20" viewBox="0 0 22 20">
  <defs>
    <clipPath id="clip-iPad_Nexus_9_1">
      <rect width="22" height="20"/>
    </clipPath>
  </defs>
  <g id="iPad_Nexus_9_1" data-name="iPad, Nexus 9 – 1" clip-path="url(#clip-iPad_Nexus_9_1)">
    <g id="home" transform="translate(-10.025 -22.4)">
      <path id="Path_1" data-name="Path 1" d="M31.418,31.861l-9.633-9.038a1.417,1.417,0,0,0-.967-.423,1.269,1.269,0,0,0-.963.423l-9.631,9.038a.612.612,0,0,0,0,.9c.262.249.641.059.906-.191l.646-.605,9.073-8.353,9.666,9.032c.262.163.674.337.906.121a.622.622,0,0,0,0-.909Zm-3.466-.413a.525.525,0,0,0-.54.5h0v8.433A1.044,1.044,0,0,1,26.335,41.4H23.943V36.518A1.984,1.984,0,0,0,21.9,34.6H19.739a1.985,1.985,0,0,0-2.045,1.92v4.875H15.3a1.049,1.049,0,0,1-1.077-1.011V31.951a.541.541,0,0,0-1.08,0V40.48a1.987,1.987,0,0,0,2.045,1.92h3.578V36.614A1.043,1.043,0,0,1,19.844,35.6H21.79a1.048,1.048,0,0,1,1.077,1.009V42.4h3.578a1.985,1.985,0,0,0,2.045-1.92V31.947a.517.517,0,0,0-.538-.5Z" transform="translate(0 0)" fill="#626262"/>
    </g>
  </g>
</svg>
