<svg xmlns="http://www.w3.org/2000/svg" width="18" height="21" viewBox="0 0 18 21">
  <path id="Parcel" d="M13.749,10.182a.623.623,0,0,1,0,.88L8.656,16.153a.62.62,0,0,1-.879,0L5.183,13.559a.622.622,0,0,1,.879-.88l2.154,2.153,4.652-4.65A.623.623,0,0,1,13.749,10.182Zm2.976,7.974a1.512,1.512,0,0,1-1.488,1.531H2.763a1.512,1.512,0,0,1-1.488-1.531V7.231H16.725ZM3.919,2.074a1.485,1.485,0,0,1,1.287-.761H8.362V5.918H1.746Zm5.719-.761h3.157a1.485,1.485,0,0,1,1.287.761l2.172,3.845H9.638Zm8.285,4.965c-.005-.011,0-.023-.008-.033l-2.73-4.831A2.759,2.759,0,0,0,12.794,0H5.206A2.759,2.759,0,0,0,2.816,1.413L.086,6.244c-.005.01,0,.022-.009.033a.658.658,0,0,0-.078.3V18.156A2.807,2.807,0,0,0,2.763,21H15.237A2.807,2.807,0,0,0,18,18.156V6.575A.673.673,0,0,0,17.922,6.277Z" fill="#ff0036" fill-rule="evenodd"/>
</svg>
