<svg xmlns="http://www.w3.org/2000/svg" width="58.316" height="60.967" viewBox="0 0 58.316 60.967">
  <path id="path7573-1" d="M129.314,150.786c-.961.021-1.916.086-2.863.194a30.986,30.986,0,0,0-25.6,19.866A30.315,30.315,0,0,0,116.9,208.891a31.332,31.332,0,0,0,39.972-12.39,2.437,2.437,0,0,0,.116-2.574,2.551,2.551,0,0,0-4.489.111,26.17,26.17,0,0,1-33.466,10.369A25.344,25.344,0,0,1,105.6,172.533a26.033,26.033,0,0,1,31.123-15.925,2.536,2.536,0,0,0,3.041-1.768,2.475,2.475,0,0,0-1.728-3.024,31.413,31.413,0,0,0-8.724-1.031Zm16.5,15.783a2.079,2.079,0,0,0-1.461.6L130,181.266l-5.711-5.616a2.087,2.087,0,0,0-2.921,0l-3.488,3.431a2,2,0,0,0,0,2.869L125.055,189l3.488,3.428a2.087,2.087,0,0,0,2.921,0L134.953,189l15.8-15.535a2,2,0,0,0,0-2.869l-3.488-3.428A2.073,2.073,0,0,0,145.81,166.569Z" transform="translate(-98.98 -150.778)" fill="#ff0036" fill-rule="evenodd"/>
</svg>
