<svg xmlns="http://www.w3.org/2000/svg" xmlns:xlink="http://www.w3.org/1999/xlink" width="59" height="61" viewBox="0 0 59 61">
  <defs>
    <clipPath id="clip-iPad_Nexus_9_1">
      <rect width="59" height="61"/>
    </clipPath>
  </defs>
  <g id="iPad_Nexus_9_1" data-name="iPad, Nexus 9 – 1" clip-path="url(#clip-iPad_Nexus_9_1)">
    <path id="path7573-1" d="M129.314,150.786q-1.441.031-2.863.194a30.986,30.986,0,0,0-25.6,19.866A30.315,30.315,0,0,0,116.9,208.891a31.332,31.332,0,0,0,39.972-12.39,2.437,2.437,0,0,0,.116-2.574,2.551,2.551,0,0,0-4.489.111,26.17,26.17,0,0,1-33.466,10.369A25.344,25.344,0,0,1,105.6,172.533a26.033,26.033,0,0,1,31.123-15.925,2.536,2.536,0,0,0,3.041-1.768,2.475,2.475,0,0,0-1.728-3.024,31.413,31.413,0,0,0-8.724-1.031Zm1.7,30.48c-.547,0-.15-1.349-.539-.964l-.471.964,1.01.76h.454c-.484.493-6.865-2.569-.993,0,4.12-2.045-.273,2.088.539,1.293l-.539-3.017c.388-.377,0,.54,0,0s.388,1.341,0,.964l2.047-.964c-.387-.383-.968.965-1.513.964Z" transform="translate(-99.007 -150.777)" fill="#ff0036" fill-rule="evenodd"/>
    <rect id="Rectangle_1" data-name="Rectangle 1" width="44" height="10" rx="5" transform="translate(12.019 42.511) rotate(-45)" fill="#ff0036"/>
    <rect id="Rectangle_2" data-name="Rectangle 2" width="44" height="10" rx="5" transform="matrix(-0.719, -0.695, 0.695, -0.719, 44.463, 48.98)" fill="#ff0036"/>
  </g>
</svg>
