<svg xmlns="http://www.w3.org/2000/svg" width="22" height="22" viewBox="0 0 22 22">
  <path id="Question_mark" data-name="Question mark" d="M14.217,8.352a3.23,3.23,0,0,1-2.594,3.179v1.513a.622.622,0,0,1-1.244,0V10.968A.622.622,0,0,1,11,10.346,1.983,1.983,0,1,0,9.028,8.352a.631.631,0,0,1-.623.633.612.612,0,0,1-.622-.611V8.352a3.217,3.217,0,1,1,6.433,0ZM11.83,15.411A.83.83,0,1,1,11,14.58.831.831,0,0,1,11.83,15.411ZM11,20.756A9.755,9.755,0,1,1,20.756,11,9.766,9.766,0,0,1,11,20.756ZM11,0A11,11,0,1,0,22,11,11.013,11.013,0,0,0,11,0Z" fill="#ff0036" fill-rule="evenodd"/>
</svg>
