<svg xmlns="http://www.w3.org/2000/svg" width="16" height="20" viewBox="0 0 16 20">
  <path id="receipt" d="M2.18,19.85a.47.47,0,0,0,.35.15h.29a.47.47,0,0,0,.35-.15L5,18a.51.51,0,0,1,.71,0l1.81,1.81a.47.47,0,0,0,.35.15h.29a.47.47,0,0,0,.35-.15L10.32,18A.51.51,0,0,1,11,18l1.81,1.81a.47.47,0,0,0,.35.15h.29a.47.47,0,0,0,.35-.15L15.71,18a1,1,0,0,0,.29-.7V1a1,1,0,0,0-1-1H1A1,1,0,0,0,0,1V17.26a1.05,1.05,0,0,0,.29.71ZM9,11.5a.5.5,0,0,1-.5.5h-4a.5.5,0,0,1-.5-.5v-1a.5.5,0,0,1,.5-.5h4a.5.5,0,0,1,.5.5ZM11.5,8a.5.5,0,0,0,.5-.5v-1a.5.5,0,0,0-.5-.5h-7a.5.5,0,0,0-.5.5v1a.5.5,0,0,0,.5.5Z" fill="#ff0036" fill-rule="evenodd"/>
</svg>
