<svg xmlns="http://www.w3.org/2000/svg" width="60.667" height="60.667" viewBox="0 0 23.667 23.667">
  <path id="path7573-1" d="M111.291,150.781c-.39.008-.778.033-1.162.075a12.5,12.5,0,0,0-10.39,7.712,11.589,11.589,0,0,0,6.512,14.77,13.024,13.024,0,0,0,16.223-4.81.911.911,0,0,0,.047-1,1.058,1.058,0,0,0-1.822.043,10.878,10.878,0,0,1-13.582,4.025,9.689,9.689,0,0,1-5.45-12.374,10.68,10.68,0,0,1,12.631-6.182,1.035,1.035,0,0,0,1.234-.686.957.957,0,0,0-.7-1.174,13.3,13.3,0,0,0-3.541-.4Zm6.695,6.127a.864.864,0,0,0-.593.232l-5.822,5.474-2.318-2.18a.875.875,0,0,0-1.185,0l-1.416,1.332a.753.753,0,0,0,0,1.114l2.911,2.736,1.416,1.331a.875.875,0,0,0,1.185,0l1.416-1.331,6.414-6.031a.753.753,0,0,0,0-1.114l-1.416-1.331A.862.862,0,0,0,117.986,156.908Z" transform="translate(-98.98 -150.777)" fill="#ff0036" fill-rule="evenodd"/>
</svg>
