<svg xmlns="http://www.w3.org/2000/svg" width="22" height="22" viewBox="0 0 22 22">
  <path id="Settings" d="M20.756,12.433a.155.155,0,0,1-.156.156h-.978a1.414,1.414,0,0,0-1.327.969,6.8,6.8,0,0,1-.326.788,1.418,1.418,0,0,0,.255,1.631l.687.683a.158.158,0,0,1,0,.221l-2.031,2.03a.155.155,0,0,1-.111.047.152.152,0,0,1-.11-.047l-.684-.687a1.418,1.418,0,0,0-1.632-.254,6.412,6.412,0,0,1-.785.324,1.417,1.417,0,0,0-.97,1.329V20.6a.156.156,0,0,1-.157.156H9.567a.156.156,0,0,1-.157-.156v-.977a1.417,1.417,0,0,0-.971-1.329,6.546,6.546,0,0,1-.785-.324,1.46,1.46,0,0,0-.645-.15,1.386,1.386,0,0,0-.986.4l-.683.687a.155.155,0,0,1-.221,0l-2.03-2.03a.158.158,0,0,1,0-.222l.688-.683a1.419,1.419,0,0,0,.253-1.631,7.056,7.056,0,0,1-.326-.787,1.414,1.414,0,0,0-1.327-.97H1.4a.156.156,0,0,1-.157-.156V9.567A.157.157,0,0,1,1.4,9.411h.977A1.414,1.414,0,0,0,3.7,8.442a6.886,6.886,0,0,1,.326-.787,1.417,1.417,0,0,0-.254-1.631L3.089,5.34a.157.157,0,0,1,0-.22L5.119,3.089a.15.15,0,0,1,.11-.046.153.153,0,0,1,.111.046l.684.688a1.418,1.418,0,0,0,1.631.253,6.423,6.423,0,0,1,.785-.324,1.416,1.416,0,0,0,.97-1.328V1.4a.157.157,0,0,1,.157-.156h2.865a.157.157,0,0,1,.157.156v.978a1.416,1.416,0,0,0,.971,1.328,6.559,6.559,0,0,1,.785.324,1.418,1.418,0,0,0,1.632-.254l.683-.686a.147.147,0,0,1,.11-.047.153.153,0,0,1,.111.046l2.03,2.03a.154.154,0,0,1,.046.112.156.156,0,0,1-.046.11l-.688.683a1.418,1.418,0,0,0-.254,1.631,6.758,6.758,0,0,1,.326.786,1.414,1.414,0,0,0,1.327.97H20.6a.156.156,0,0,1,.156.156ZM20.6,8.166h-.978a.169.169,0,0,1-.149-.13,8.3,8.3,0,0,0-.384-.93.177.177,0,0,1,.012-.2l.687-.682a1.4,1.4,0,0,0,0-1.985L17.761,2.207a1.393,1.393,0,0,0-.99-.409h0a1.4,1.4,0,0,0-.992.413l-.682.687a.172.172,0,0,1-.2.015,8.025,8.025,0,0,0-.931-.385.172.172,0,0,1-.13-.149V1.4a1.4,1.4,0,0,0-1.4-1.4H9.567a1.4,1.4,0,0,0-1.4,1.4v.978a.172.172,0,0,1-.129.149,7.859,7.859,0,0,0-.93.385.178.178,0,0,1-.2-.015l-.683-.687A1.4,1.4,0,0,0,5.231,1.8h0a1.391,1.391,0,0,0-.99.41L2.207,4.24a1.4,1.4,0,0,0,0,1.983l.686.683a.176.176,0,0,1,.015.2,7.866,7.866,0,0,0-.384.931.172.172,0,0,1-.15.129H1.4A1.4,1.4,0,0,0,0,9.567v2.866a1.4,1.4,0,0,0,1.4,1.4h.977a.171.171,0,0,1,.15.13,7.783,7.783,0,0,0,.384.93.177.177,0,0,1-.013.2l-.687.683a1.4,1.4,0,0,0,0,1.984l2.031,2.032a1.394,1.394,0,0,0,.99.409h0a1.4,1.4,0,0,0,.992-.413l.682-.687a.176.176,0,0,1,.2-.014,8,8,0,0,0,.93.384.174.174,0,0,1,.13.15V20.6a1.4,1.4,0,0,0,1.4,1.4h2.865a1.4,1.4,0,0,0,1.4-1.4v-.977a.174.174,0,0,1,.129-.15,7.865,7.865,0,0,0,.931-.384.172.172,0,0,1,.2.014l.683.687a1.4,1.4,0,0,0,.992.413h0a1.389,1.389,0,0,0,.99-.41l2.032-2.032a1.4,1.4,0,0,0,0-1.983l-.686-.683a.176.176,0,0,1-.014-.2,8.145,8.145,0,0,0,.384-.93.169.169,0,0,1,.149-.13H20.6a1.4,1.4,0,0,0,1.4-1.4V9.567A1.4,1.4,0,0,0,20.6,8.166ZM11,14.009A3.009,3.009,0,1,1,14.01,11,3.014,3.014,0,0,1,11,14.009Zm0-7.264A4.255,4.255,0,1,0,15.254,11,4.259,4.259,0,0,0,11,6.745Z" fill="#ff0036" fill-rule="evenodd"/>
</svg>
