<svg xmlns="http://www.w3.org/2000/svg" width="18" height="20" viewBox="0 0 18 20">
  <path id="Trash" d="M10.781,15.66V7.17a.563.563,0,1,1,1.125,0V15.66a.563.563,0,1,1-1.125,0Zm-4.687,0V7.17a.563.563,0,1,1,1.125,0V15.66a.563.563,0,1,1-1.125,0ZM15,16.6a2.26,2.26,0,0,1-2.25,2.264H5.25A2.26,2.26,0,0,1,3,16.6V3.962H15ZM7.219,1.509a.376.376,0,0,1,.375-.377h2.812a.376.376,0,0,1,.375.377V2.83H7.219ZM17.438,2.83H11.906V1.509A1.507,1.507,0,0,0,10.406,0H7.594a1.507,1.507,0,0,0-1.5,1.509V2.83H.563a.566.566,0,0,0,0,1.132H1.875V16.6A3.39,3.39,0,0,0,5.25,20h7.5a3.39,3.39,0,0,0,3.375-3.4V3.962h1.313a.566.566,0,0,0,0-1.132Z" fill="#d20000" fill-rule="evenodd"/>
</svg>
